#!OML:ASF F:\VICON\USERDATA\INSTALL\rory3\rory3.ASF
:FULLY-SPECIFIED
:DEGREES
34
root 0.9434019973540195 18.313625235012672 3.9347003286194315 -3.657475911940171 -6.1063186554571605 0.06815760586945085
lfemur -9.517172386023494 -2.1491736833791193 -23.83895717389248
ltibia 25.596339382282963
lfoot -10.80566422369989 -1.8977080259943886
ltoes 0.3190688198119318
rfemur -15.294853130340963 3.29346355551845 22.50113569184546
rtibia 70.89118958286656
rfoot 1.2765626001858728 -8.861476268770732
rtoes 11.145168439377025
lowerback 10.192995622146636 1.8031169518955796 -0.23650807808460317
upperback 0.49384002097407376 2.204771624423044 -0.05370541431978859
thorax -6.102923799782396 1.0105147133424548 -0.049805333261483176
lowerneck -15.33758284898368 -2.811765588598345 -1.2967446900479969
upperneck 23.014779298908824 -3.622203757474533 0.11459041830068536
head 10.116326019169792 -1.8117545681588718 -0.3602341940185942
lclavicle -1.3892212592316166e-15 -1.8453033389941053e-15
lhumerus -32.35355720262683 6.848440076656509 81.38195686556185
lradius 17.958810024508455
lwrist -0.0089475726245829
lhand -27.107542673938912 23.37338250976791
lfingers 7.125019999999999
lthumb -0.5812986670297846 53.246294842813676
rclavicle -1.3834909737682564e-15 -1.8405302026751247e-15
rhumerus -28.326642702425488 -23.873754303947702 -78.13431834729252
rradius 25.890567368642625
rwrist 4.886927918623179
rhand -17.94060657979845 21.55166250897264
rfingers 7.125019999999999
rthumb 8.340697347242743 -8.240800939558266
35
root 0.9039892856554916 18.250461099718326 5.016297937381905 -3.746097503622549 -4.469211336065386 -0.3548693828505043
lfemur -7.745293713917681 -1.663638059721865 -24.090621884899527
ltibia 26.55825857454242
lfoot -11.991534307783127 -0.9100956947727816
ltoes -0.18977458829239113
rfemur -18.615085348705612 1.375930900502301 22.734247946853586
rtibia 70.6519984234574
rfoot -2.4973524632287267 -7.671431446963985
rtoes 10.156760478955828
lowerback 10.1376349610168 1.041563742435798 -0.23640966698813148
upperback 0.48992343767709723 1.3842191430441373 0.15818117811628918
thorax -6.263667615940646 0.6299337009839114 0.3836644225925957
lowerneck -15.203632333314722 -2.6896716333762294 -1.3968413369877015
upperneck 23.1586373934743 -3.368059160803165 0.05685236985140181
head 10.155897720668673 -1.720649453644808 -0.32739530996597355
lclavicle -1.38933738607457e-15 -1.8453837668421473e-15
lhumerus -30.78752718526126 4.81776221718433 81.39962725101346
lradius 19.366073319057758
lwrist 2.0403095629117853
lhand -27.89776697749352 22.776850006346077
lfingers 7.125019999999999
lthumb -1.3105446234387772 52.85121550878504
rclavicle -1.3832123662777391e-15 -1.84030355977528e-15
rhumerus -29.374694462249717 -24.93008393347244 -77.55649020692414
rradius 24.93048227693496
rwrist 5.607526534046482
rhand -17.761628008033433 21.480978756214178
rfingers 7.125019999999999
rthumb 8.534345613353508 -8.288362624902632
36
root 0.8781903507093356 18.237816389717043 5.874979067709942 -3.988329881553721 -3.4577409513539634 -0.34561833473781256
lfemur -6.550944051368814 -1.5281501858456343 -24.350299315145193
ltibia 28.17236527984151
lfoot -13.17819612386555 0.06772869467271336
ltoes -0.9891545833399702
rfemur -22.48937988843749 0.3943822355459474 22.379818070638375
rtibia 68.3761807701382
rfoot -6.135725943423562 -6.5296942451265405
rtoes 7.940989682071971
lowerback 10.342547458270836 0.42500260283760166 -0.6396395537768595
upperback 0.42150587938748235 0.6444352853886205 0.3705336167392108
thorax -6.473671007732671 0.28156789228050383 0.7977133010511239
lowerneck -15.179614199357305 -2.620650554421029 -1.47665676878494
upperneck 23.260846535945642 -3.2144433942198347 -0.06878264026581776
head 10.173639246212343 -1.6681216470839784 -0.32543434344316235
lclavicle -1.3902863226025344e-15 -1.8462618492780525e-15
lhumerus -29.09561185009855 2.7970605697792728 81.27812675856585
lradius 20.847575887128386
lwrist 4.517380400236478
lhand -28.26656354789748 22.854348566420096
lfingers 7.125019999999999
lthumb -1.5770292343684522 53.036096573168074
rclavicle -1.3839298832088903e-15 -1.8409326587750276e-15
rhumerus -30.4042282746348 -25.254674581482615 -77.16857386838853
rradius 24.516339911088913
rwrist 5.3217228834581
rhand -17.582730390503286 21.701078740660535
rfingers 7.125019999999999
rthumb 8.731685569163016 -8.029684526987593
37
root 0.7975189234804281 17.955338243436756 6.665922121680277 -3.5913219927492213 -2.0934570275111053 0.8536829910043706
lfemur -5.111826913320514 -1.4977789148325378 -25.60056781496985
ltibia 29.449744736419397
lfoot -14.707543917127126 0.18310243413520322
ltoes -1.7707675757470465
rfemur -26.265735951362732 -1.3934987059993054 20.987838466020808
rtibia 64.30524602408951
rfoot -8.651457800080308 -6.791130810072155
rtoes 5.666342175964955
lowerback 10.9098032046208 -0.048973114110613225 -1.950874844082274
upperback 0.369534834408955 -0.08807755285342644 0.4682700177232597
thorax -6.476380567436186 -0.05578626316174051 1.339626700453878
lowerneck -15.221340932104356 -2.6331269219161344 -1.6776950623069329
upperneck 23.24456590231154 -3.187428781973327 -0.04845907666999243
head 10.145371564087167 -1.6622679862637397 -0.28173609591103055
lclavicle -1.391577811547869e-15 -1.8474607088649172e-15
lhumerus -27.477194845781096 1.0876655130939028 80.93300316408819
lradius 22.369956094945213
lwrist 5.830346679485947
lhand -28.020937777156426 23.475332393544793
lfingers 7.125019999999999
lthumb -1.2969060240550851 53.690508868302906
rclavicle -1.383011417950908e-15 -1.8401180161680766e-15
rhumerus -31.389312277872726 -25.142997522734436 -76.92308219277726
rradius 24.476511666962885
rwrist 4.6900447905262395
rhand -17.492221763599638 22.369862107376058
rfingers 7.125019999999999
rthumb 8.82955812680802 -7.433971413757511
38
root 0.7195420114947964 17.73166357498793 8.51017711438417 -3.190862787015459 -0.9710152143929117 1.69477669719097
lfemur -2.6806399360131694 -0.8550349085396711 -26.494123557800528
ltibia 28.979982627945105
lfoot -15.273357405036943 -0.010971475298346078
ltoes -2.3534347117472123
rfemur -28.524825893829632 -3.0008440657720286 20.59588845304846
rtibia 57.80536190219962
rfoot -9.281716359860065 -8.479445466848983
rtoes 3.1951892209039015
lowerback 11.438735589177284 -0.41242822120865813 -3.0177054812329067
upperback 0.380977299225172 -0.7211861541447881 0.5242979492663384
thorax -6.283814426912086 -0.3290895198229002 1.9340773389906238
lowerneck -15.30736180933715 -2.6801755825426286 -1.8411805898297926
upperneck 23.06117880985666 -3.236065196160508 -0.014367718311061865
head 10.056834632726341 -1.6822390078518246 -0.24243915059061671
lclavicle -1.3930298574045365e-15 -1.8487902816190808e-15
lhumerus -25.81163496485019 -0.1432219760621134 80.43668990817716
lradius 23.850886765026104
lwrist 6.112679032766399
lhand -27.689794795807337 24.180933223375433
lfingers 7.125019999999999
lthumb -1.0674456358145086 54.2979628235007
rclavicle -1.3819271085640243e-15 -1.839124931847244e-15
rhumerus -32.2200665782302 -24.815981052565746 -76.67998876227443
rradius 24.464234113632948
rwrist 4.15746008283444
rhand -17.477872152009112 22.795555950038526
rfingers 7.125019999999999
rthumb 8.871792520090901 -6.940765444719383
